<?xml version="1.0" standalone="no"?><!DOCTYPE svg PUBLIC "-//W3C//DTD SVG 1.1//EN" "http://www.w3.org/Graphics/SVG/1.1/DTD/svg11.dtd"><svg t="1492157761300" class="icon" style="" viewBox="0 0 1024 1024" version="1.1" xmlns="http://www.w3.org/2000/svg" p-id="2394" xmlns:xlink="http://www.w3.org/1999/xlink" width="16" height="16"><defs><style type="text/css"></style></defs><path d="M959.839213 507.175111c0-248.688989-200.935382-451.02937-447.89703-451.02937-246.961648 0-447.89703 202.340381-447.89703 451.02937 0 131.355677 56.092529 249.754251 145.379065 332.25422l-0.423649 0.376577 14.527878 12.332886c0.944512 0.803295 1.970888 1.460258 2.916423 2.248204 7.719822 6.445806 15.71696 12.56313 23.860431 18.481933 2.639107 1.920746 5.27719 3.840468 7.964392 5.709025 8.697079 6.036483 17.622356 11.759835 26.743084 17.189498 1.987261 1.179872 3.989871 2.329045 5.993504 3.475148 9.983375 5.726421 20.179598 11.121292 30.620391 16.075117 0.765433 0.360204 1.547239 0.688685 2.312672 1.047866 34.023908 15.925714 70.344115 27.619034 108.325148 34.525328 0.99363 0.179079 1.987261 0.360204 2.997264 0.541329 11.791557 2.049682 23.714098 3.690042 35.782971 4.787026 1.466398 0.13303 2.931772 0.212848 4.41352 0.345877 12.019755 1.001817 24.171516 1.641383 36.483936 1.641383 12.198833 0 24.235984-0.638543 36.189224-1.608637 1.514493-0.12996 3.031033-0.212848 4.54348-0.342808 11.971659-1.100054 23.795962-2.692319 35.473933-4.707209 1.00898-0.182149 2.035356-0.36225 3.046383-0.558725 37.413098-6.756891 73.210395-18.188244 106.794281-33.70566 1.237177-0.573051 2.492774-1.11438 3.730974-1.703805 10.048867-4.755304 19.87056-9.892301 29.495778-15.353686 2.394537-1.360997 4.770653-2.737344 7.14984-4.148483 8.762571-5.198395 17.377786-10.629081 25.749454-16.399505 3.012613-2.068102 5.961782-4.248767 8.94165-6.415107 7.14984-5.180999 14.169721-10.527774 20.99415-16.121166 1.514493-1.228991 3.142573-2.297322 4.626367-3.559059l14.902408-12.531408-0.441045-0.376577C903.208425 758.14505 959.839213 639.204124 959.839213 507.175111zM96.618013 507.175111c0-230.615355 186.309266-418.228313 415.323147-418.228313s415.322124 187.611935 415.322124 418.228313c0 124.270305-54.155411 235.993852-139.891074 312.653813-4.787026-3.330862-9.608845-6.315846-14.544251-8.80862l-137.90279-69.425186c-12.378935-6.232958-20.064988-18.762319-20.064988-32.686447l0-48.498574c3.191692-3.968381 6.563486-8.462742 10.047844-13.400195 17.850553-25.388227 32.16763-53.630455 42.608423-84.021625 20.634969-9.873882 33.958416-30.571273 33.958416-53.943586l0-58.142212c0-14.219863-5.179976-28.013007-14.446014-38.853913l0-76.544327c0.847298-8.511861 3.843538-56.55097-30.668487-96.176456-30.017664-34.507932-78.603219-51.974745-144.419204-51.974745-65.817008 0-114.40154 17.466814-144.41818 51.958372-34.512025 39.625486-31.515784 87.663572-30.668487 96.175433l0 76.544327c-9.251711 10.840906-14.447037 24.63405-14.447037 38.853913l0 58.142212c0 18.056238 8.046257 34.899858 21.825075 46.266743 13.192464 52.040237 40.343847 91.436502 50.376341 104.785531l0 47.465035c0 13.383822-7.248078 25.684986-18.926048 32.114418l-128.783085 70.738088c-4.104481 2.245134-8.176217 4.870938-12.247952 7.807826C149.975245 741.580792 96.618013 630.543883 96.618013 507.175111zM755.581156 845.563028c-5.699816 4.16588-11.498892 8.199753-17.377786 12.053524-2.705622 1.77032-5.392824 3.543709-8.143471 5.265934-7.688099 4.78805-15.506159 9.347902-23.486924 13.610996-1.75804 0.936325-3.533476 1.822508-5.308913 2.741437-18.339694 9.462512-37.314861 17.597797-56.81089 24.207331-0.683569 0.231267-1.36816 0.475837-2.068102 0.705058-10.211573 3.411703-20.553105 6.445806-31.011294 9.054213-0.031722 0-0.064468 0.014326-0.097214 0.014326-10.55438 2.625804-21.23872 4.807493-31.987528 6.595208-0.294712 0.049119-0.587378 0.115634-0.881067 0.163729-10.114358 1.655709-20.308535 2.852978-30.537504 3.75451-1.809205 0.163729-3.616364 0.278339-5.439896 0.411369-10.115382 0.771573-20.277836 1.260713-30.489408 1.260713-10.326183 0-20.61962-0.506537-30.863938-1.278109-1.775436-0.13303-3.550873-0.24457-5.309936-0.408299-10.326183-0.917906-20.602224-2.15099-30.782074-3.823072-0.456395-0.080841-0.911766-0.163729-1.36816-0.24457-21.532409-3.624551-42.72201-8.955976-63.35698-15.925714-0.635473-0.213871-1.287319-0.444115-1.921769-0.656963-10.244318-3.50994-20.376073-7.398504-30.327726-11.694343-0.064468-0.033769-0.146333-0.065492-0.211824-0.098237-9.414417-4.085038-18.648732-8.610098-27.76946-13.382798-1.189082-0.62524-2.394537-1.215688-3.566222-1.855254-8.322549-4.475941-16.467043-9.31618-24.495904-14.368242-2.378164-1.508353-4.738931-3.034103-7.085372-4.574179-7.394411-4.870938-14.690584-9.940396-21.791305-15.303544-0.732687-0.555655-1.432629-1.149173-2.166339-1.704828 0.520863-0.295735 1.042749-0.589424 1.563612-0.886183l128.783085-70.738088c22.150486-12.169157 35.912931-35.507702 35.912931-60.913325l-0.016373-59.075467-3.745301-4.559852c-0.35918-0.408299-35.57217-43.543725-48.878221-101.947903l-1.481747-6.495948-5.554506-3.624551c-7.833409-5.100158-12.524245-13.629415-12.524245-22.830985l0-58.142212c0-7.625678 3.208065-14.728446 9.071609-20.057825l5.374404-4.88731 0-91.353614-0.147356-2.148943c-0.048095-0.393973-4.853541-39.838334 22.73684-71.508637 23.551392-27.028587 63.911612-40.757263 119.922277-40.757263 55.799864 0 96.0291 13.613042 119.645984 40.445154 27.557636 31.342846 23.045879 71.526033 23.013133 71.853491l-0.147356 93.503581 5.374404 4.88731c5.848195 5.313006 9.072633 12.431124 9.072633 20.057825l0 58.142212c0 11.69332-7.899924 22.305005-19.23611 25.831318l-8.094352 2.509147-2.606361 8.119935c-9.608845 30.061666-23.291472 57.830103-40.652885 82.529645-4.267187 6.068206-8.420787 11.447726-11.987009 15.564487l-4.03899 4.641717 0 60.666708c0 26.439162 14.592346 50.220798 38.07927 62.029752l137.903813 69.426209c0.87902 0.441045 1.74269 0.900509 2.606361 1.360997C759.132028 843.052858 757.340219 844.281849 755.581156 845.563028z" p-id="2395" fill="#bfbfbf"></path></svg>